<svg width="19" height="18" viewBox="0 0 19 18" fill="none" xmlns="http://www.w3.org/2000/svg">
<g clip-path="url(#clip0_264_632)">
<path d="M8.85572 5.62402H8.9872C9.01072 5.67346 9.0192 5.72902 9.0712 5.75706C9.32804 5.76418 9.2472 5.74466 9.54152 6.04002H10.1375C10.2264 6.08038 10.2519 6.20502 10.3689 6.18454C10.4523 6.2991 10.6569 6.29938 10.6584 6.49554C10.6586 6.52354 10.71 6.5509 10.7377 6.57858C10.6923 6.70486 10.5861 6.78206 10.4974 6.87702C10.468 6.92414 10.3726 6.84162 10.3698 6.92938C10.3672 7.01438 10.283 6.9681 10.2534 7.01818C10.2328 7.0531 10.165 7.06022 10.1174 7.08014L10.0645 7.0343C10.0421 7.12154 9.95888 7.13494 9.89604 7.1703C9.85068 7.17678 9.84404 7.10666 9.77404 7.13558L9.65972 7.27798C9.61288 7.2399 9.58468 7.19606 9.54596 7.21962C9.4452 7.28102 9.34908 7.3501 9.25192 7.41734C9.14792 7.48747 9.023 7.51978 8.89804 7.5089C8.80704 7.49714 8.74024 7.6059 8.63536 7.51978V7.70542C8.58364 7.75946 8.49736 7.7023 8.4586 7.8037C8.43756 7.6611 8.25736 7.7369 8.23976 7.60146C8.16564 7.63654 8.08944 7.68682 8.0302 7.57586C8.016 7.55154 8.04992 7.5487 8.0582 7.5281C8.05612 7.48238 8.01672 7.50614 7.9932 7.49722C7.9452 7.44922 7.96616 7.35466 8.06672 7.16886C7.84624 7.02958 7.7566 6.78486 7.61392 6.59194C7.6238 6.43766 7.7164 6.34146 7.85212 6.2821C7.89421 6.26976 7.93716 6.26054 7.9806 6.2545C8.09376 6.22418 8.20524 6.18018 8.32828 6.1825C8.54704 6.1865 8.60892 6.13102 8.67768 5.92038C8.71164 5.81634 8.72084 5.6965 8.85572 5.62402Z" fill="#212121"/>
<path d="M15.1059 14.3764C14.9739 14.4582 14.8441 14.482 14.7637 14.5878C14.7347 14.6225 14.6938 14.6453 14.649 14.6516C14.497 14.6847 14.3962 14.8281 14.2326 14.8391C14.2032 14.841 14.1771 14.8907 14.1494 14.9184C13.981 14.9026 13.824 15.002 13.6534 14.967C13.6094 14.9579 13.5604 14.986 13.5199 14.9496C13.4108 14.8514 13.275 14.8183 13.1359 14.8022C13.0094 14.7875 12.9404 14.6965 12.8599 14.6182C12.8449 14.5685 12.889 14.4816 12.7712 14.4948V14.2784C12.8966 14.1187 13.0757 14.0526 13.2863 14.0224C13.4879 13.9893 13.6861 13.9378 13.8783 13.8684C13.9234 13.8525 13.9648 13.8277 14.0002 13.7954C14.0356 13.7632 14.0641 13.7242 14.0842 13.6808C14.2144 13.4221 14.3218 13.1525 14.4052 12.8752C14.4708 12.6672 14.4666 12.6657 14.6441 12.5712C14.7721 12.6032 14.7204 12.7188 14.7381 12.7901L14.8776 12.6505C14.9421 12.6985 14.9744 12.7382 14.9809 12.798C15.0529 12.8009 15.1283 12.8409 15.1865 12.7482C15.2265 12.8373 15.1636 12.9453 15.2964 12.9922L15.4075 12.8416C15.4661 12.9088 15.4144 12.9787 15.4536 13.0313C15.4983 13.0593 15.524 13.029 15.551 12.9993C15.5618 13.0063 15.5772 13.0107 15.583 13.0206C15.7358 13.2867 15.6968 13.5463 15.5493 13.7984C15.4741 13.9227 15.3791 14.0338 15.2679 14.1273C15.1912 14.1931 15.135 14.2796 15.1059 14.3764Z" fill="#212121"/>
<path d="M12.1907 10.9204C12.1303 10.9264 12.0729 10.9535 12.043 10.8799C11.9707 10.933 11.9175 11.0395 11.8122 10.9412C11.8071 10.9354 11.8007 10.9309 11.7935 10.9281C11.7863 10.9252 11.7785 10.9241 11.7708 10.9248C11.7631 10.9255 11.7557 10.9281 11.7492 10.9322C11.7426 10.9363 11.7371 10.9419 11.7332 10.9486C11.6985 10.9961 11.6455 10.9609 11.6027 10.9827C11.5385 11.1867 11.3755 11.3134 11.2173 11.4415C11.1977 11.4575 11.1673 11.4864 11.1445 11.4866C10.9358 11.4885 10.7266 11.5063 10.5183 11.4781C10.457 11.3996 10.3218 11.5 10.2783 11.3789C10.1948 11.3745 10.1138 11.3495 10.0423 11.3061C9.96402 11.2638 9.89494 11.205 9.8183 11.1677C9.70026 11.1102 9.63666 11.0157 9.57798 10.9117C9.53898 10.8427 9.50998 10.7681 9.47534 10.694C9.51534 10.6174 9.54606 10.534 9.62018 10.4745C9.66025 10.4419 9.70703 10.4185 9.75718 10.4061C9.89728 10.3626 10.0274 10.2918 10.14 10.1978C10.421 9.97995 10.6886 9.74683 10.9568 9.51431C11.0093 9.46879 11.0736 9.45551 11.1293 9.42291C11.1736 9.45583 11.2267 9.47927 11.2109 9.54691C11.2856 9.59299 11.3687 9.53979 11.4389 9.58023C11.4448 9.64707 11.3663 9.58135 11.3649 9.64703C11.4231 9.68171 11.4992 9.64819 11.5689 9.66331C11.6005 9.71347 11.6645 9.73531 11.6849 9.80155C11.7015 9.85591 11.7744 9.92403 11.7594 9.95115C11.7199 10.0224 11.7899 10.0643 11.7782 10.1232C11.7665 10.182 11.7894 10.2592 11.7594 10.3017C11.7248 10.3508 11.8021 10.408 11.7234 10.4422C11.8091 10.4965 11.886 10.5796 11.972 10.5905C12.0661 10.6025 12.0684 10.7582 12.191 10.6838L12.1907 10.9204Z" fill="#212121"/>
<path d="M6.07937 12.861C5.96629 12.9161 5.91937 13.0589 5.77809 13.0977C5.73101 12.9488 5.97241 12.9233 5.89769 12.7824C5.83276 12.7378 5.76346 12.6998 5.69085 12.6692C5.66318 12.6611 5.63793 12.6464 5.61737 12.6262C5.5968 12.606 5.58154 12.5811 5.57297 12.5536C5.53657 12.4593 5.47241 12.3783 5.38897 12.3213C5.38595 12.2678 5.38634 12.2142 5.39013 12.1607C5.40541 12.0421 5.43477 11.932 5.52861 11.8422C5.76197 11.6187 6.02133 11.4431 6.33377 11.3485C6.4092 11.3183 6.48179 11.2815 6.55069 11.2384C6.56149 11.1364 6.62429 11.0392 6.61741 10.9197C6.61792 10.8834 6.63086 10.8484 6.65407 10.8206C6.67728 10.7927 6.70936 10.7737 6.74493 10.7666C6.79097 10.7576 6.83201 10.7231 6.89177 10.6913V10.9973L7.06645 10.8249C7.34645 10.9915 7.54373 11.1993 7.60089 11.5199L7.50525 11.5537V11.7489C7.38185 11.8421 7.37041 11.987 7.32193 12.1049C7.2676 12.25 7.18661 12.3836 7.08313 12.4989C6.98945 12.5983 6.87393 12.6785 6.81537 12.8099C6.79898 12.8461 6.76984 12.8751 6.73349 12.8912C6.60549 12.9363 6.52169 13.0305 6.44257 13.1454C6.42797 13.1054 6.41813 13.0782 6.39885 13.0254C6.36749 13.1263 6.34885 13.2011 6.24961 13.2504C6.12845 13.3104 6.08561 13.2401 6.02253 13.1824C5.99257 13.2148 5.96789 13.2471 5.92189 13.2224C5.91657 13.2094 5.90305 13.1929 5.90685 13.1831C5.93495 13.0975 5.98605 13.0212 6.05457 12.9627C6.08569 12.9378 6.11109 12.9089 6.07937 12.861Z" fill="#212121"/>
<path d="M10.019 2.89292C9.98938 2.88092 9.98646 2.84744 9.94734 2.86492C9.9339 2.97652 9.97266 3.10396 9.87134 3.2198C9.83134 3.23448 9.74202 3.21284 9.7173 3.29224C9.6973 3.35596 9.67646 3.40424 9.6141 3.4136C9.5421 3.4124 9.59654 3.31844 9.5305 3.31916C9.4659 3.31956 9.44842 3.38344 9.4051 3.4124C9.38346 3.3988 9.37126 3.37268 9.38258 3.35484C9.41534 3.3032 9.45134 3.25512 9.4165 3.19056C9.36582 3.14688 9.34154 3.21116 9.30406 3.21856C9.29394 3.21201 9.28673 3.20181 9.28393 3.19009C9.28112 3.17836 9.28295 3.16601 9.28902 3.1556C9.38102 2.97996 9.41702 2.78616 9.48554 2.6036C9.35189 2.52541 9.21396 2.45477 9.07242 2.392C8.9217 2.31732 8.81946 2.204 8.6903 2.092H8.48806C8.4871 1.97344 8.6229 1.94224 8.5951 1.81048C8.52558 1.76248 8.5077 1.93848 8.42122 1.91048C8.3993 1.89724 8.39178 1.87744 8.39678 1.84008C8.52506 1.75752 8.6895 1.74928 8.8319 1.68008C8.98346 1.60632 9.15834 1.59748 9.32274 1.56056C9.49366 1.52212 9.6599 1.55748 9.8345 1.52796C9.95794 1.43312 9.93654 1.26796 9.98986 1.1342C10.0455 0.994557 10.1069 0.862837 10.223 0.760997C10.2666 0.722797 10.3073 0.739757 10.3565 0.743917C10.3641 0.814477 10.2395 0.824357 10.2843 0.917277L10.4637 0.830437C10.5129 0.833357 10.5087 0.866437 10.5082 0.897357C10.7353 0.949077 10.7746 0.973957 10.8557 1.20968C10.876 1.26894 10.8859 1.3313 10.8847 1.39396C10.8816 1.4798 10.8839 1.56596 10.8839 1.65052C10.9012 1.68524 10.9395 1.66804 10.9707 1.68988V2.04188C10.793 2.10292 10.7523 2.29208 10.6501 2.43064C10.6053 2.49144 10.5724 2.5614 10.4442 2.5774C10.5058 2.50916 10.5608 2.46996 10.5833 2.417C10.605 2.36576 10.6645 2.32592 10.6473 2.26332C10.6337 2.23812 10.6233 2.23688 10.6113 2.25356C10.5437 2.34956 10.4927 2.46156 10.3673 2.50008C10.3725 2.5874 10.3423 2.57344 10.299 2.52312C10.2497 2.55688 10.2808 2.60688 10.2742 2.64868C10.2693 2.67988 10.2725 2.70756 10.2265 2.7102C10.1143 2.7166 10.0903 2.828 10.019 2.89292Z" fill="#212121"/>
<path d="M5.66978 6.18446C5.68006 6.28046 5.6645 6.34302 5.58358 6.37306C5.52074 6.3723 5.50326 6.30846 5.45986 6.27942C5.4047 6.3371 5.34978 6.34638 5.28246 6.29162C5.22725 6.2518 5.18847 6.1932 5.17338 6.12682C5.16138 6.01282 5.0903 5.94974 5.01766 5.88554C4.88418 5.76519 4.78133 5.61473 4.71766 5.44666C4.69985 5.41112 4.69125 5.37168 4.69265 5.33196C4.69405 5.29223 4.7054 5.2535 4.72566 5.2193C4.75631 5.1517 4.80345 5.09288 4.86275 5.04824C4.92205 5.0036 4.99162 4.97457 5.06506 4.96382C5.16706 4.94598 5.26246 4.88974 5.3669 4.92006C5.39058 4.87882 5.4269 4.8649 5.43774 4.82054C5.49714 4.58899 5.586 4.36601 5.70214 4.15706C5.78038 4.01258 5.8479 4.00358 5.99334 4.08418C6.08422 4.13454 6.17482 4.17518 6.25446 4.24918C6.35284 4.33017 6.42769 4.43606 6.47122 4.55582C6.5329 4.6993 6.56471 4.85384 6.5647 5.01002C6.56398 5.08274 6.5325 5.16522 6.60818 5.22686C6.61966 5.23622 6.61722 5.27486 6.60862 5.29486C6.54946 5.42962 6.57714 5.58482 6.49466 5.71694C6.40246 5.86462 6.31402 6.01518 6.17438 6.12006C6.12379 6.16426 6.05854 6.188 5.99138 6.18666C5.89142 6.17822 5.79006 6.18446 5.66978 6.18446Z" fill="#212121"/>
<path d="M3.18159 8.82673C3.18159 8.88273 3.16487 8.93805 3.18443 8.95797C3.27967 9.05517 3.15579 9.13481 3.17243 9.22289C3.06251 9.32689 3.02963 9.47957 2.93875 9.59445C2.88787 9.65877 2.83475 9.72245 2.72799 9.71201C2.69449 9.71246 2.66147 9.72011 2.63118 9.73443C2.60089 9.74876 2.57404 9.76943 2.55243 9.79505C2.50479 9.76005 2.45515 9.72901 2.39307 9.76705C2.38683 9.80529 2.44939 9.81673 2.42435 9.87309C2.33959 9.90081 2.24495 9.93113 2.15079 9.96285C2.05479 9.99513 1.92999 10.0028 1.87123 10.0688C1.80267 10.1458 1.71575 10.1958 1.64163 10.2787C1.57997 10.2406 1.51012 10.2178 1.43787 10.2121C1.47299 10.1508 1.55635 10.1345 1.52815 10.0349L1.41643 10.1251C1.4062 10.1193 1.39863 10.1097 1.39533 10.0984C1.39202 10.0871 1.39324 10.0749 1.39871 10.0645C1.42074 10.0444 1.43579 10.0178 1.44165 9.98857C1.44751 9.95934 1.44389 9.929 1.43131 9.90197C1.29795 9.89877 1.16275 9.84577 1.02731 9.78117C0.987312 9.70977 1.07107 9.65077 1.07215 9.58937C1.01527 9.54537 0.987752 9.57237 0.959632 9.60441C0.881232 9.57741 0.853512 9.50677 0.887032 9.44873C0.933112 9.36873 0.970072 9.28117 1.07175 9.23361C1.36659 9.09561 1.64775 8.92937 1.94375 8.80297C2.07387 8.58189 2.04987 8.29305 2.26459 8.11121H2.40391C2.42647 8.17957 2.47551 8.19085 2.54559 8.21121C2.66879 8.24721 2.80355 8.30637 2.84999 8.44521C2.88171 8.54005 2.95971 8.59941 2.99871 8.68861C3.01373 8.7261 3.0387 8.75878 3.07093 8.78312C3.10316 8.80746 3.14142 8.82254 3.18159 8.82673Z" fill="#212121"/>
<path d="M9.21868 16.327C9.18648 16.3032 9.17732 16.2762 9.16892 16.2779L8.95272 16.5045C8.94616 16.547 9.04304 16.4885 9.04664 16.5445C8.90392 16.6276 8.7114 16.6582 8.69284 16.8855L8.75776 16.9504C8.79776 16.8963 8.83744 16.8422 8.87812 16.7869C8.92736 16.8397 8.91228 16.8689 8.881 16.8999C8.81109 16.9791 8.71308 17.028 8.60776 17.0361C8.52816 17.0405 8.45732 17.1068 8.36728 17.0736C8.35528 17.1075 8.34596 17.1347 8.33628 17.1624C8.30624 17.1807 8.30428 17.143 8.271 17.133C8.26488 17.2103 8.18164 17.213 8.14088 17.2635C8.06548 17.2326 8.00792 17.1439 7.92888 17.1568C7.89136 17.1629 7.8344 17.0808 7.80888 17.1808L7.69896 17.0395H7.50668C7.39152 16.9855 7.3584 16.884 7.31368 16.7915C7.32828 16.7672 7.34208 16.7442 7.35544 16.722L7.26596 16.6325C7.26948 16.5659 7.31504 16.5147 7.34956 16.4605C7.38408 16.4064 7.43904 16.4143 7.49192 16.4357C7.49476 16.4763 7.42616 16.4997 7.4702 16.5565C7.57532 16.4859 7.7038 16.468 7.81672 16.4132C7.89608 16.2028 7.88976 15.9629 8.06112 15.7836C8.08489 15.7545 8.10201 15.7205 8.11128 15.6841C8.12055 15.6477 8.12173 15.6097 8.11476 15.5728C8.10612 15.5291 8.14676 15.5303 8.18212 15.5305C8.237 15.5952 8.18732 15.6773 8.21256 15.7474C8.36688 15.681 8.41716 15.5883 8.41256 15.4266C8.41108 15.3763 8.45684 15.3251 8.43376 15.2589C8.39344 15.2509 8.40144 15.2831 8.39376 15.3069C8.38332 15.3268 8.36982 15.3449 8.35376 15.3606C8.34551 15.3735 8.3329 15.3831 8.31822 15.3875C8.30353 15.3919 8.28776 15.3909 8.27376 15.3846C8.283 15.1483 8.35088 15.0499 8.56176 14.968C8.61376 15.0183 8.55852 15.0889 8.5968 15.146C8.64356 15.1387 8.65976 15.0912 8.70112 15.0624C8.7276 15.1113 8.73972 15.1713 8.79544 15.2011C8.84144 15.2185 8.86144 15.1768 8.89888 15.1483C9.0616 15.2159 9.19088 15.3083 9.19652 15.5148C9.19848 15.5862 9.28124 15.6628 9.23608 15.7268C9.18008 15.8057 9.26376 15.8569 9.24376 15.9268C9.21576 16.0237 9.31176 16.1065 9.29152 16.2121C9.27889 16.2567 9.25358 16.2966 9.21868 16.327Z" fill="#212121"/>
<path d="M14.295 4.91644H14.4303C14.4828 4.96592 14.4312 5.03584 14.4635 5.09244C14.5446 5.1362 14.5625 5.04844 14.6104 5.01832C14.6214 5.02279 14.6318 5.0284 14.6416 5.03504C14.6949 5.07932 14.7256 5.14044 14.7848 5.18596C14.9772 5.33428 15.0142 5.56108 14.9008 5.80512C14.8488 5.91712 14.7997 6.04164 14.7138 6.12296C14.643 6.18992 14.6602 6.2772 14.6054 6.34088C14.552 6.40292 14.4845 6.44668 14.4458 6.53188C14.4008 6.63116 14.2593 6.65424 14.1902 6.74812C14.0651 6.71968 14.0459 6.82584 13.9971 6.8972C13.9702 6.92972 13.9406 6.95989 13.9086 6.98736C13.8419 6.97424 13.779 6.9334 13.7009 6.93032C13.6345 6.92768 13.5717 6.8444 13.5006 6.92568C13.3998 6.83708 13.291 6.95192 13.1985 6.91888C13.0969 6.88248 12.9799 6.89316 12.8892 6.8118C12.8578 6.78356 12.7866 6.7954 12.7337 6.79612C12.7125 6.79791 12.6913 6.79285 12.6732 6.78169C12.6551 6.77053 12.641 6.75386 12.6331 6.73412C12.6026 6.64916 12.7189 6.64656 12.6581 6.57812C12.6332 6.53412 12.5753 6.5824 12.5374 6.54696C12.5237 6.51218 12.5218 6.47386 12.532 6.43788C12.6039 6.39978 12.6826 6.37622 12.7637 6.36856C12.8888 6.36456 12.9917 6.28056 13.1069 6.23704C13.3454 6.1543 13.5625 6.01929 13.7422 5.84188C13.8035 5.77687 13.8535 5.70208 13.8902 5.6206C13.9714 5.45074 14.0545 5.28174 14.1394 5.1136C14.1732 5.03544 14.2268 4.96747 14.295 4.91644Z" fill="#212121"/>
<path d="M0.667437 4.54193L0.765717 4.63473C0.937717 4.62857 0.979518 4.47741 1.01472 4.36773C1.11668 4.05005 1.24328 3.74177 1.35024 3.42633C1.38096 3.33573 1.40692 3.31641 1.61284 3.21857C1.63612 3.32681 1.6972 3.37033 1.81684 3.37521C1.8922 3.37829 1.9862 3.45057 2.03084 3.51869C2.06744 3.57449 2.15208 3.63293 2.13976 3.67717C2.12056 3.74617 2.23016 3.79053 2.15696 3.85745C2.14644 3.86705 2.20576 3.90489 2.19632 3.95001C2.1818 4.01973 2.29284 4.07953 2.2384 4.13801C2.1708 4.21061 2.27576 4.25637 2.24284 4.31429C2.23999 4.32173 2.23999 4.32996 2.24284 4.33741C2.27084 4.42281 2.08912 4.42941 2.17 4.54961C2.19844 4.59201 2.1208 4.66801 2.08632 4.72757C2.04311 4.79816 1.99149 4.86325 1.9326 4.92141C1.88032 4.97625 1.82676 5.02893 1.7418 5.03941C1.6698 4.93941 1.59352 5.10365 1.51228 5.05965C1.49284 5.21165 1.30404 5.20041 1.25312 5.33565C1.2406 5.37281 1.29816 5.38533 1.30392 5.42517C1.30309 5.44473 1.29731 5.46377 1.2871 5.48049C1.2769 5.4972 1.26262 5.51105 1.24559 5.52073C1.22856 5.53041 1.20936 5.5356 1.18977 5.53582C1.17019 5.53603 1.15087 5.53127 1.13364 5.52197C1.02376 5.46917 0.911598 5.49081 0.797238 5.47597C0.794355 5.37817 0.753983 5.28523 0.684478 5.21637C0.642038 5.17845 0.626678 5.12061 0.648998 5.09333C0.754598 4.96429 0.652557 4.85241 0.627677 4.73733C0.605117 4.63413 0.594677 4.63637 0.667437 4.54193Z" fill="#212121"/>
<path d="M15.3455 9.58945L15.4993 9.43565C15.8358 9.38141 16.1721 9.33205 16.5193 9.42365C16.6208 9.40045 16.6683 9.30073 16.6953 9.21757C16.7305 9.10869 16.8214 9.03913 16.8534 8.93097C16.8771 8.85049 16.9856 8.87097 17.0203 8.80585C17.097 8.83737 17.1494 8.86665 17.125 8.95749C17.2333 8.95129 17.3246 8.94993 17.3838 9.04249C17.4295 9.11393 17.5462 9.10569 17.5671 9.22149C17.5817 9.30281 17.6465 9.37505 17.6852 9.44473C17.5812 9.59793 17.7298 9.72333 17.7224 9.86301C17.6908 9.95465 17.6612 10.0426 17.5243 10.0486C17.4471 10.0519 17.366 10.1206 17.2996 10.1756C17.2139 10.2466 17.1394 10.2473 17.0529 10.1746C17.0492 10.2893 16.9489 10.3085 16.8724 10.354C16.855 10.3442 16.8302 10.318 16.8075 10.3195C16.6546 10.3302 16.5132 10.2489 16.3715 10.2494C16.234 10.2561 16.0972 10.226 15.9752 10.1623C15.8542 10.0921 15.7132 10.0778 15.5976 9.99381C15.5488 9.95833 15.5046 9.94105 15.4839 9.87577C15.4533 9.77941 15.3408 9.72233 15.3455 9.58945Z" fill="#212121"/>
</g>
<defs>
<clipPath id="clip0_264_632">
<rect width="18" height="18" fill="white" transform="translate(0.166687)"/>
</clipPath>
</defs>
</svg>
