<svg width="17" height="12" viewBox="0 0 17 12" fill="none" xmlns="http://www.w3.org/2000/svg">
<g clip-path="url(#clip0_264_646)">
<path d="M16.2715 4.92257C16.2715 4.91876 16.2617 4.9152 16.2523 4.90863C16.2485 4.93232 16.2451 4.95322 16.2415 4.97597C16.2041 4.94986 16.1775 4.96858 16.1732 4.9944C16.1672 5.03009 16.1631 5.05575 16.118 5.07015C16.0867 5.08013 16.0739 5.11575 16.0286 5.12067C15.9939 5.12436 15.9653 5.16272 15.9308 5.18091C15.9053 5.19448 15.8767 5.20288 15.8472 5.20553C15.8176 5.20817 15.7878 5.205 15.7597 5.19622C15.8061 5.17774 15.8496 5.16471 15.843 5.11347C15.8422 5.10675 15.8547 5.0977 15.8625 5.0912C15.932 5.03345 16.0011 4.97532 16.0721 4.91895C16.0925 4.90186 16.1162 4.88835 16.1421 4.87913C16.2057 4.85888 16.2038 4.80454 16.2194 4.76132C16.225 4.74574 16.1911 4.71425 16.1986 4.70448C16.2393 4.65135 16.2166 4.59807 16.2089 4.54452C16.2057 4.52256 16.1993 4.50094 16.1967 4.47893C16.1972 4.44937 16.1944 4.41983 16.1883 4.39076C16.1608 4.31887 16.1459 4.24357 16.1441 4.16756C16.1428 4.06056 16.1484 3.95439 16.126 3.84596C16.1063 3.75087 16.0895 3.65415 16.0726 3.55796C16.0466 3.40916 15.9873 3.27183 15.9328 3.13143C15.8996 3.04587 15.839 2.97668 15.7955 2.89788C15.7663 2.84388 15.7334 2.79152 15.6971 2.74109C15.5691 2.56625 15.408 2.41515 15.258 2.25629C15.2109 2.20642 15.144 2.17229 15.0916 2.12585C14.9524 1.99771 14.7949 1.88678 14.6233 1.79597C14.5751 1.77154 14.5287 1.74399 14.4833 1.71548C14.4403 1.68848 14.3998 1.65836 14.3582 1.6296C14.2854 1.6488 14.263 1.58016 14.2152 1.55693C14.1398 1.52024 14.0719 1.46813 13.9927 1.43453C13.9012 1.39565 13.7987 1.37144 13.7184 1.31921C13.5781 1.22801 13.4112 1.19588 13.259 1.13309C13.1326 1.08101 13.0019 1.0327 12.8699 0.989261C12.7665 0.955253 12.6744 0.893261 12.5564 0.900293C12.5471 0.900845 12.5284 0.890525 12.5288 0.886349C12.5329 0.841685 12.473 0.861965 12.4635 0.832685C12.3718 0.825893 12.2902 0.787085 12.2047 0.762461C12.1186 0.737621 12.0261 0.737717 11.9434 0.698069C11.8993 0.680589 11.8514 0.672578 11.8033 0.674669C11.7293 0.674405 11.6616 0.633869 11.5861 0.650501C11.527 0.609701 11.4577 0.637349 11.3943 0.626981C11.3313 0.613307 11.267 0.605521 11.2023 0.603749C11.0295 0.607349 10.8565 0.602093 10.6837 0.605765C10.5099 0.609461 10.3355 0.589133 10.1624 0.626093C10.0841 0.642893 9.9972 0.608861 9.92032 0.650501C9.79344 0.644981 9.67232 0.681221 9.54875 0.692621C9.43195 0.703397 9.32208 0.747821 9.20326 0.741581C9.12915 0.788309 9.03707 0.789053 8.95526 0.804389C8.86611 0.821069 8.77846 0.846917 8.68694 0.858077C8.59675 0.869069 8.51022 0.903413 8.41654 0.900989C8.3719 0.936749 8.31171 0.929189 8.25968 0.944501C8.2032 0.961133 8.13702 0.952733 8.08222 0.971813C8.02579 0.991469 7.96614 0.978509 7.91574 0.995093C7.84723 1.01765 7.77624 1.02053 7.70774 1.03712C7.63531 1.05464 7.56142 1.06716 7.48856 1.08339C7.40459 1.10211 7.31958 1.11843 7.23763 1.14291C7.00803 1.21152 6.77851 1.28024 6.55046 1.35336C6.30697 1.42824 6.068 1.5145 5.83451 1.6118C5.51566 1.74924 5.20203 1.89701 4.91224 2.08335C4.74798 2.18895 4.58851 2.29964 4.43384 2.41541C4.33547 2.48914 4.24502 2.57189 4.15011 2.6497C3.9668 2.79996 3.79683 2.96336 3.62187 3.1208L3.65019 3.15068C3.58155 3.15756 3.55024 3.20124 3.51152 3.24092C3.41312 3.34205 3.29254 3.42452 3.20752 3.53765C3.16687 3.58839 3.12223 3.63644 3.07395 3.68144C3.02758 3.72732 3.01483 3.79839 2.94174 3.82395C2.85051 3.99478 2.68366 4.12311 2.60915 4.30335C2.47664 4.44689 2.4187 4.62828 2.31048 4.78474C2.27353 4.83041 2.24229 4.87961 2.21734 4.93145C2.18294 5.0135 2.14271 5.09347 2.09688 5.17085C2.00496 5.33537 1.9495 5.51093 1.87555 5.68066C1.83947 5.76344 1.82651 5.85192 1.79923 5.93686C1.78403 5.98414 1.75622 6.02981 1.75123 6.07767C1.744 6.14657 1.7119 6.2101 1.70307 6.27543C1.69366 6.34484 1.66448 6.40652 1.6476 6.47223C1.6387 6.50696 1.6156 6.53734 1.62043 6.57687C1.6231 6.59919 1.59048 6.63447 1.59987 6.64496C1.63336 6.68211 1.5972 6.69296 1.57963 6.71273C1.57574 6.71885 1.57312 6.72555 1.5719 6.73251C1.54347 6.81929 1.5428 6.91028 1.52512 6.99891C1.50646 7.09215 1.52246 7.18952 1.49899 7.28544C1.48299 7.35058 1.49824 7.42155 1.49504 7.48973C1.49064 7.53123 1.48377 7.57249 1.47448 7.61333L1.55075 7.65785C1.52454 7.66839 1.49942 7.68102 1.47571 7.69558C1.46208 7.70747 1.45216 7.72236 1.44694 7.73878C1.48336 7.76537 1.44112 7.78829 1.44427 7.81287C1.44827 7.8428 1.44054 7.87424 1.44648 7.90364C1.4532 7.9369 1.41851 7.96088 1.42278 7.98507C1.43019 8.02683 1.41395 8.066 1.41027 8.1043C1.40584 8.15052 1.4559 8.20498 1.3952 8.24549C1.44251 8.2945 1.41339 8.35311 1.41896 8.40713C1.42363 8.45228 1.41667 8.49833 1.42091 8.5436C1.42456 8.58257 1.44558 8.62145 1.44246 8.6593C1.43995 8.68961 1.42032 8.71587 1.45992 8.7385C1.4668 8.74244 1.46416 8.76351 1.46171 8.77599C1.45904 8.7894 1.44376 8.81127 1.44718 8.81355C1.48635 8.83995 1.47278 8.87756 1.46851 8.90808C1.46259 8.95179 1.48486 8.9858 1.50008 9.02249C1.51235 9.05196 1.53822 9.07918 1.54107 9.1087C1.54286 9.12735 1.51475 9.14031 1.53528 9.17307C1.57107 9.23026 1.56995 9.30346 1.61888 9.35787C1.60312 9.43078 1.65296 9.48951 1.67488 9.55349C1.69888 9.62352 1.71923 9.69888 1.7808 9.75236C1.81376 9.78099 1.83272 9.80916 1.82494 9.85044C1.82286 9.86151 1.81923 9.87888 1.82547 9.88366C1.88912 9.9324 1.89523 10.0138 1.9508 10.0646C2.02294 10.1306 2.05214 10.2301 2.15347 10.2723C2.21891 10.3803 2.3359 10.4457 2.42219 10.5364C2.45016 10.5658 2.47259 10.6033 2.50752 10.6225C2.54139 10.6411 2.55038 10.6525 2.5432 10.6885C2.53888 10.7101 2.56304 10.7563 2.5783 10.7578C2.62758 10.7624 2.60864 10.805 2.63566 10.8223C2.69883 10.8629 2.7551 10.9121 2.81456 10.9573C2.81854 10.9603 2.82603 10.9595 2.8415 10.9621C2.85043 10.9499 2.86163 10.9345 2.87267 10.9194L2.91206 10.9543L2.81339 11.0112C2.89299 11.0124 2.96104 10.9993 2.96947 11.0744C3.01894 11.089 3.06401 11.1136 3.10118 11.1464C3.13568 11.1802 3.1683 11.2232 3.23406 11.1999C3.2372 11.1988 3.2539 11.238 3.26222 11.2373C3.28459 11.2326 3.30596 11.2246 3.3255 11.2137L3.37883 11.2881C3.39088 11.2698 3.4 11.2561 3.4091 11.2423C3.4251 11.273 3.4567 11.2379 3.46094 11.2458C3.49878 11.3162 3.57827 11.3185 3.64494 11.3394C3.68817 11.3553 3.73456 11.363 3.78124 11.362C3.82791 11.3611 3.87387 11.3515 3.91627 11.3339C3.94062 11.343 3.95094 11.3934 4.00062 11.3688C3.99875 11.3651 3.99639 11.3617 3.9936 11.3585C3.97659 11.345 3.962 11.3276 3.9851 11.3126C4.00286 11.3011 4.02115 11.3048 4.02776 11.332C4.03171 11.3483 4.05115 11.3616 4.06931 11.3829C4.07646 11.3485 4.08072 11.3281 4.08894 11.2887L4.17472 11.3659C4.17476 11.3574 4.17656 11.3489 4.18006 11.341C4.20363 11.3014 4.23339 11.3719 4.2591 11.3383C4.26075 11.3362 4.27571 11.3393 4.27568 11.3395C4.27302 11.3798 4.31152 11.3878 4.33168 11.3743C4.37856 11.3427 4.39251 11.3784 4.41582 11.3967L4.52083 11.3545C4.54832 11.394 4.57384 11.3707 4.60187 11.3539C4.6232 11.3412 4.64587 11.3971 4.66982 11.355C4.69723 11.3916 4.72246 11.3517 4.74939 11.3521C4.87102 11.3539 4.98854 11.3227 5.10824 11.3108C5.16691 11.3051 5.18307 11.2778 5.20115 11.2409C5.25096 11.2617 5.25096 11.2617 5.38174 11.2321C5.37963 11.2124 5.37766 11.1937 5.37568 11.1752C5.39339 11.1797 5.41071 11.1853 5.4275 11.1921C5.43577 11.197 5.443 11.2032 5.44883 11.2104C5.53416 11.1854 5.61976 11.1655 5.68142 11.1055C5.6836 11.1033 5.68891 11.1031 5.69278 11.1031C5.71777 11.1062 5.74318 11.1056 5.76795 11.1013C5.78894 11.0941 5.8012 11.0677 5.82206 11.0586C5.85379 11.0471 5.88648 11.0378 5.91984 11.0309C5.92395 11.0058 5.92726 10.9855 5.93126 10.9609L6.00435 10.9875V10.9203H6.1156C6.19176 10.8481 6.20518 10.7425 6.29784 10.6869C6.2972 10.6504 6.36235 10.6227 6.31587 10.58L6.20862 10.7034V10.5749C6.27198 10.6046 6.27206 10.5283 6.3175 10.5326C6.31142 10.5187 6.30706 10.5042 6.30448 10.4894C6.30517 10.4744 6.30766 10.4594 6.31192 10.4449L6.32635 10.445C6.33936 10.4894 6.35237 10.5337 6.36536 10.5779C6.37182 10.5741 6.37772 10.5696 6.38294 10.5645C6.42438 10.5163 6.46258 10.4659 6.49731 10.4136C6.52817 10.3602 6.56373 10.3092 6.60363 10.2609C6.65982 10.1946 6.6911 10.1116 6.74032 10.0398C6.76454 10.0045 6.76646 9.98021 6.73675 9.95583C6.76708 9.93915 6.79487 9.91898 6.81942 9.89583C6.8524 9.85183 6.88275 9.80626 6.91032 9.75934C6.94014 9.71352 6.96654 9.66555 7.00054 9.62254C7.04656 9.5663 7.11278 9.52612 7.18798 9.50883C7.20711 9.50514 7.22578 9.49973 7.24371 9.49268C7.27224 9.47907 7.24086 9.45965 7.24326 9.45394C7.2524 9.43217 7.27075 9.44127 7.29099 9.45113C7.31312 9.46191 7.34046 9.43856 7.34046 9.41336C7.33587 9.38187 7.27059 9.37707 7.29779 9.32844C7.33067 9.33538 7.37048 9.35633 7.39595 9.34666C7.45462 9.32439 7.4292 9.42411 7.49403 9.3847C7.47376 9.36944 7.44579 9.3439 7.48051 9.32823C7.52627 9.30747 7.50614 9.36521 7.52728 9.37088C7.56595 9.37088 7.60699 9.38182 7.63128 9.36833C7.66862 9.3475 7.69262 9.34078 7.72995 9.36646C7.74288 9.37536 7.77424 9.3638 7.7968 9.35984C7.81366 9.35803 7.82923 9.3508 7.84064 9.33948C7.85204 9.32816 7.85851 9.31351 7.85886 9.29823C7.872 9.31421 7.88684 9.329 7.90315 9.34241C7.92803 9.35907 7.98382 9.33471 7.98152 9.38996C7.99218 9.3923 8.00324 9.39279 8.01411 9.3914C8.02883 9.38741 8.05131 9.37066 8.05438 9.37352C8.08504 9.40174 8.1243 9.38909 8.1587 9.3968C8.18104 9.40181 8.1987 9.42406 8.22043 9.44L8.23726 9.38655C8.28742 9.46369 8.37118 9.47643 8.45931 9.51154L8.53424 9.44405C8.52488 9.46611 8.5175 9.4836 8.50734 9.50756C8.54912 9.53561 8.5908 9.57368 8.6412 9.59492C8.70254 9.62072 8.77187 9.63108 8.81504 9.68501C8.81814 9.68722 8.82169 9.68886 8.8255 9.68983C8.8293 9.6908 8.83328 9.69109 8.8372 9.69068C8.8956 9.68885 8.92646 9.7622 8.99387 9.73767C8.99552 9.73707 9.00342 9.75464 9.0108 9.76167C9.02667 9.77676 9.05008 9.80559 9.05998 9.80247C9.12752 9.78087 9.14248 9.84394 9.18408 9.86206C9.21075 9.87365 9.2252 9.90766 9.24203 9.92792L9.32203 9.89218C9.33658 9.91483 9.35295 9.93648 9.37102 9.95698C9.38342 9.96924 9.39171 9.99747 9.42619 9.97042C9.44192 9.95809 9.43064 10.0228 9.47488 10.0098C9.54923 10.0573 9.64581 10.0731 9.70528 10.1433C9.71766 10.1579 9.75062 10.1569 9.7676 10.17C9.80243 10.1968 9.85051 10.1862 9.88782 10.2143C9.92553 10.2397 9.97061 10.2548 10.0176 10.2577C10.0338 10.2589 10.0496 10.2631 10.064 10.2698C10.0785 10.2766 10.0912 10.2858 10.1017 10.2971C10.1844 10.3716 10.2951 10.4155 10.412 10.4202C10.433 10.4218 10.4649 10.4398 10.472 10.4331C10.5051 10.4023 10.5212 10.4324 10.5457 10.4412C10.5554 10.445 10.5659 10.4469 10.5765 10.4469C10.5871 10.4469 10.5976 10.445 10.6073 10.4412C10.6647 10.406 10.7273 10.4241 10.7876 10.4199C10.8276 10.4171 10.8679 10.4255 10.9047 10.3981C10.9261 10.3821 10.9535 10.3742 10.9813 10.3762C11.0304 10.3847 11.0339 10.3324 11.0472 10.3325C11.1046 10.3329 11.1432 10.2989 11.1902 10.2821C11.259 10.2578 11.3245 10.2258 11.3929 10.2005C11.46 10.1795 11.521 10.145 11.5713 10.0997C11.6305 10.0401 11.7237 10.0409 11.7873 9.98837C11.8342 9.94966 11.8951 9.92494 11.9513 9.93996C11.9993 9.89705 12.0358 9.85959 12.0781 9.82865C12.0979 9.81425 12.133 9.81713 12.154 9.80333C12.175 9.78953 12.1811 9.75773 12.2022 9.74638C12.37 9.65672 12.4561 9.50607 12.5459 9.36286C12.6277 9.22709 12.6988 9.08629 12.7586 8.94152C12.7942 8.85948 12.7925 8.76579 12.856 8.69309C12.8601 8.68841 12.856 8.67826 12.8566 8.6707C12.863 8.59776 12.8886 8.52752 12.8845 8.4523C12.8825 8.41534 12.9184 8.37826 12.9066 8.33672C12.9009 8.31648 12.8837 8.29736 12.8837 8.27775C12.8837 8.25814 12.9014 8.23906 12.9066 8.21876C12.9188 8.17008 12.8858 8.1259 12.8838 8.08023C12.8762 7.90503 12.8858 7.72983 12.8598 7.55424C12.8426 7.43866 12.8554 7.31933 12.8573 7.20171C12.8578 7.16996 12.848 7.13825 12.877 7.10571C12.8853 7.09267 12.8899 7.07794 12.8903 7.06288C12.8907 7.04783 12.8868 7.03293 12.8791 7.01957C12.8391 6.97664 12.8969 6.96692 12.8961 6.93874L12.9395 6.96701C12.9298 6.91632 12.9235 6.88301 12.9163 6.8455C12.9933 6.80931 13.0043 6.7236 13.059 6.66584C13.0425 6.63879 13.0933 6.61817 13.0678 6.59033C13.0651 6.58743 13.0619 6.58498 13.0506 6.57502C13.1074 6.58162 13.1335 6.55673 13.1552 6.51965C13.1872 6.45948 13.2354 6.40748 13.2954 6.36845C13.304 6.36329 13.3057 6.34971 13.3122 6.341C13.3346 6.31076 13.3524 6.27519 13.4017 6.2738C13.3999 6.26268 13.3981 6.2516 13.3958 6.23751C13.4418 6.22251 13.4822 6.1959 13.5119 6.16085C13.5517 6.11486 13.6046 6.07939 13.665 6.05818C13.6864 6.04752 13.706 6.03404 13.723 6.01817C13.702 6.00247 13.6784 5.98976 13.6531 5.98052C13.6348 5.97728 13.6133 5.98932 13.5903 5.99532C13.5887 5.93259 13.653 5.94012 13.6795 5.91387L13.7151 5.95601C13.7236 5.94635 13.7327 5.9371 13.7423 5.92832C13.7526 5.91975 13.7645 5.91286 13.7812 5.90156C13.7836 5.91474 13.7877 5.92762 13.7934 5.93996C13.8025 5.94914 13.813 5.95721 13.8244 5.96396L13.94 5.84936C13.942 5.84991 13.9583 5.85932 13.966 5.85531C13.9969 5.83878 14.0265 5.82017 14.0543 5.79965C14.0739 5.78549 14.0875 5.7606 14.109 5.75362C14.1321 5.74903 14.156 5.74839 14.1793 5.75172C14.2032 5.72103 14.2183 5.70154 14.2343 5.68097C14.2535 5.70161 14.2492 5.74258 14.2913 5.72765C14.3655 5.70125 14.4439 5.69098 14.5195 5.67245C14.5614 5.66211 14.6101 5.6778 14.6374 5.65762C14.6809 5.6252 14.7337 5.65551 14.7659 5.634C14.8102 5.60444 14.8537 5.6203 14.897 5.6148C14.9133 5.61272 14.9351 5.61888 14.9457 5.61137C15.0156 5.562 15.105 5.57309 15.1834 5.55075C15.239 5.53491 15.3018 5.53844 15.3506 5.50073C15.4207 5.51432 15.4704 5.4678 15.5301 5.45088C15.541 5.44779 15.5499 5.43303 15.5594 5.43329C15.6471 5.43569 15.7131 5.37852 15.7939 5.36525C15.8478 5.3564 15.8686 5.31324 15.909 5.29028C16.0636 5.20212 16.0891 5.20011 16.1742 5.07737C16.1777 5.07236 16.1877 5.07084 16.1949 5.06808C16.268 5.04003 16.2736 4.98276 16.2715 4.92257ZM3.05982 6.05967C3.04772 6.11134 3.03195 6.16225 3.01259 6.21209C2.99067 6.25769 2.98094 6.30773 2.95926 6.35129C2.9343 6.40169 2.93352 6.45466 2.91302 6.50449C2.85702 6.6404 2.83155 6.78411 2.78584 6.92276C2.78248 6.93293 2.78384 6.95052 2.7776 6.95283C2.73336 6.9691 2.76427 7.01861 2.7383 7.03241C2.68539 7.06068 2.72312 7.10878 2.69782 7.14423C2.67811 7.17183 2.68355 7.214 2.67782 7.24966C2.64534 7.26149 2.62864 7.25158 2.63454 7.22086C2.64051 7.18966 2.64078 7.14944 2.66235 7.13033C2.71 7.08809 2.65702 7.02656 2.70611 6.98924C2.67779 6.962 2.66566 6.94436 2.72286 6.93104C2.74096 6.92684 2.76582 6.87267 2.75624 6.85858C2.7164 6.79983 2.76339 6.7476 2.76827 6.69538C2.7732 6.64275 2.79782 6.5868 2.81214 6.53165C2.82772 6.47728 2.84675 6.42375 2.86912 6.37133C2.902 6.28885 2.9139 6.19992 2.96286 6.12236C2.90907 6.06905 3.00147 6.04284 2.99283 5.99103C2.98622 5.95126 3.0224 5.90597 3.03862 5.86284C3.05611 5.81631 3.06312 5.76413 3.09128 5.72384C3.15214 5.63681 3.18918 5.54026 3.24168 5.45024C3.25232 5.43558 3.26456 5.42191 3.27822 5.40944C3.22094 5.63523 3.1283 5.84379 3.05982 6.05967ZM3.85934 5.61567C3.8324 5.68884 3.80219 5.76113 3.77032 5.8327C3.73811 5.90509 3.71587 5.9797 3.69176 6.05424C3.66715 6.13023 3.62718 6.20619 3.60534 6.28253C3.57203 6.39903 3.52582 6.51178 3.4939 6.6284C3.47046 6.71398 3.43184 6.79517 3.4107 6.88227C3.38976 6.96845 3.37115 7.05572 3.34334 7.14092C3.30615 7.2528 3.28794 7.36909 3.28931 7.48587C3.28615 7.53594 3.27564 7.58542 3.25806 7.63301C3.25362 7.64354 3.25161 7.65476 3.25214 7.66601C3.25266 7.67725 3.25572 7.68829 3.26112 7.69844C3.27179 7.72258 3.24848 7.75844 3.24158 7.7894C3.23136 7.83526 3.25491 7.88151 3.21958 7.92987C3.19352 7.9656 3.22422 8.01934 3.19518 8.0684C3.17304 8.10581 3.19078 8.16236 3.18048 8.21062C3.17232 8.15873 3.14683 8.10968 3.15798 8.05642C3.15819 8.05536 3.15174 8.05234 3.14806 8.05162C3.14022 8.05008 3.13206 8.04946 3.11872 8.0478C3.12619 8.03264 3.13294 8.01848 3.14006 8.0046C3.15033 7.98972 3.1584 7.9737 3.16406 7.95694C3.16646 7.94369 3.15216 7.92814 3.15392 7.91463C3.16822 7.80394 3.20744 7.69762 3.22059 7.58583C3.23049 7.5323 3.23736 7.47835 3.24118 7.42419C3.24147 7.36932 3.26126 7.31619 3.27216 7.26392C3.28515 7.20176 3.27718 7.13768 3.29566 7.08C3.3099 7.02305 3.31745 6.96491 3.31819 6.90653C3.31923 6.86706 3.328 6.82806 3.34408 6.79133C3.39475 6.6944 3.41224 6.58916 3.44702 6.48838C3.48435 6.38038 3.53702 6.27764 3.54862 6.16114C3.55608 6.08619 3.5932 6.01188 3.62734 5.94132C3.66147 5.87076 3.68659 5.79524 3.7256 5.72799C3.76595 5.65839 3.81094 5.5938 3.82595 5.51422C3.82984 5.49358 3.86643 5.47796 3.90936 5.44222C3.88886 5.51444 3.87758 5.56608 3.85934 5.61564V5.61567ZM8.00576 6.16846C7.99992 6.18329 8.01376 6.20446 8.01867 6.22268C7.95846 6.21987 7.98579 6.27125 7.96566 6.29134C7.90051 6.35636 7.86579 6.44139 7.78936 6.4994C7.75638 6.52443 7.73619 6.56271 7.70739 6.5928C7.69289 6.60445 7.67675 6.61433 7.65939 6.6222C7.61902 6.55692 7.65278 6.51039 7.70472 6.4867C7.74675 6.4675 7.7568 6.44556 7.77539 6.41084C7.79663 6.36904 7.82641 6.33121 7.86318 6.29931C7.93016 6.24651 7.95467 6.1706 8.0115 6.11405C8.01531 6.11026 8.00771 6.0984 8.00843 6.09053C8.00843 6.08693 8.00923 6.08336 8.01079 6.08003C8.01234 6.07671 8.01461 6.07369 8.01747 6.07116C8.02116 6.06997 8.02513 6.06966 8.02899 6.07027C8.03285 6.07088 8.03647 6.07238 8.0395 6.07462C8.04457 6.0842 8.04766 6.09454 8.04859 6.10512C8.05387 6.13748 8.01464 6.146 8.00576 6.16844V6.16846ZM8.80699 5.94394C8.76206 5.98289 8.78696 6.04212 8.73134 6.08856H8.68398C8.6868 6.11945 8.68912 6.14499 8.69211 6.17777C8.67955 6.18785 8.66486 6.19552 8.64891 6.20033C8.62684 6.20091 8.60482 6.19819 8.58374 6.19229C8.56064 6.21245 8.60715 6.26468 8.55859 6.27308C8.49939 6.28333 8.54827 6.33209 8.51136 6.35285C8.48294 6.36881 8.47918 6.35086 8.46496 6.34465C8.45022 6.42562 8.45022 6.42562 8.3668 6.52428C8.3348 6.49287 8.3348 6.49297 8.36635 6.45617C8.37107 6.45052 8.3749 6.44431 8.37773 6.43772C8.41989 6.34138 8.41984 6.34136 8.48918 6.28779L8.40875 6.26897C8.3868 6.22464 8.42966 6.19683 8.44248 6.16138C8.49131 6.17321 8.46987 6.12315 8.49416 6.11384C8.51025 6.10579 8.5279 6.10062 8.54616 6.0986C8.55206 6.0986 8.55787 6.1226 8.568 6.14494C8.6 6.10517 8.62816 6.07001 8.67419 6.01263L8.58472 6.04383V5.98889C8.62526 5.97308 8.66688 5.95325 8.68291 5.90578C8.68571 5.89748 8.7072 5.89428 8.72006 5.88874L8.73872 5.92916L8.80168 5.90655C8.8044 5.92392 8.81198 5.93967 8.80699 5.94392V5.94394Z" fill="#212121"/>
</g>
<defs>
<clipPath id="clip0_264_646">
<rect width="16" height="12" fill="white" transform="translate(0.833313)"/>
</clipPath>
</defs>
</svg>
